<svg id="Calque_1" data-name="Calque 1" xmlns="http://www.w3.org/2000/svg" viewBox="0 0 23.94 23.46">
  <title>icon-home</title>
  <g id="Icon">
    <path id="Icon-2" d="M3.83,14.49v8.07a1,1,0,0,0,.89.9H8.61a1,1,0,0,0,.9-.9V18.23a.71.71,0,0,1,.66-.75h4.27a.68.68,0,0,1,.59.75v4.33a.86.86,0,0,0,.83.9h3.66c.89,0,1-.45,1-.9V14.49Z" transform="translate(-0.06 0)" fill="#c2c9de"/>
    <path id="Icon-3" d="M23.55,11.8,12.94.45A1.12,1.12,0,0,0,11.37.22a1.2,1.2,0,0,0-.22.23L.39,12.1a1.47,1.47,0,0,0,.2,2.06,1.41,1.41,0,0,0,.85.33H22.51A1.59,1.59,0,0,0,24,12.82,1.64,1.64,0,0,0,23.55,11.8Z" transform="translate(-0.06 0)" fill="#91a0c2"/>
  </g>
</svg>
