<svg id="icon-location" data-name="icon-location" xmlns="http://www.w3.org/2000/svg" viewBox="0 0 24 24">
    <title>icon-location</title>
    <rect width="24" height="24" fill="none"/>
    <g id="icon-location" fill="currentColor">
        <path d="M23.25,10.5H20.86A9,9,0,0,0,13.5,3.13V.75A.76.76,0,0,0,12.75,0h-1.5a.76.76,0,0,0-.75.75V3.14A9,9,0,0,0,3.13,10.5H.75a.76.76,0,0,0-.75.75v1.5a.76.76,0,0,0,.75.75H3.14a9,9,0,0,0,7.36,7.36v2.39a.76.76,0,0,0,.75.75h1.5a.76.76,0,0,0,.75-.75V20.86a9,9,0,0,0,7.36-7.36h2.39a.76.76,0,0,0,.75-.75v-1.5A.76.76,0,0,0,23.25,10.5ZM12,18a6,6,0,1,1,6-6A6,6,0,0,1,12,18ZM12,7.88A4.12,4.12,0,1,0,16.12,12,4.11,4.11,0,0,0,12,7.88Z"/>
    </g>
</svg>
