<svg id="icon-speed" data-name="icon-speed" xmlns="http://www.w3.org/2000/svg" viewBox="0 0 24 24">
    <title>icon-speed</title>
    <rect width="24" height="24" fill="none"/>
    <g id="icon-check" fill="currentColor">
        <path d="M12,2.67a12,12,0,0,0-12,12,11.86,11.86,0,0,0,1.63,6,1.31,1.31,0,0,0,1.14.63H21.23a1.31,1.31,0,0,0,1.14-.63,11.86,11.86,0,0,0,1.63-6A12,12,0,0,0,12,2.67Zm6.8,7.26-4.52,6a2.69,2.69,0,0,1,.39,1.37,2.67,2.67,0,0,1-.37,1.34H9.7a2.65,2.65,0,0,1,2.3-4,3,3,0,0,1,.68.09l4.52-6a1,1,0,1,1,1.6,1.2Z"/>
    </g>
</svg>
