<svg id="icon-truck" data-name="icon-truck" xmlns="http://www.w3.org/2000/svg" viewBox="0 0 24 24">
    <title>icon-truck</title>
    <rect width="24" height="24" fill="none"/>
    <g id="icon-check" fill="currentColor">
        <path d="M23.4,15.6h-.6v-4a1.81,1.81,0,0,0-.53-1.28L18.52,6.53A1.77,1.77,0,0,0,17.25,6H15.6V4.2a1.81,1.81,0,0,0-1.8-1.8H1.8A1.81,1.81,0,0,0,0,4.2v12A1.81,1.81,0,0,0,1.8,18h.6a3.6,3.6,0,0,0,7.2,0h4.8a3.6,3.6,0,0,0,7.2,0h1.8a.6.6,0,0,0,.6-.6V16.2A.6.6,0,0,0,23.4,15.6ZM6,19.8A1.8,1.8,0,1,1,7.8,18,1.81,1.81,0,0,1,6,19.8Zm12,0A1.8,1.8,0,1,1,19.8,18,1.81,1.81,0,0,1,18,19.8ZM21,12H15.6V7.8h1.65L21,11.55Z"/>
    </g>
</svg>
