<svg id="Calque_1" data-name="Calque 1" xmlns="http://www.w3.org/2000/svg" viewBox="0 0 24 24">
    <title>coursierprive-logo-filled</title>
    <g id="Logo" fill="currentColor">
        <ellipse cx="16.02" cy="9.47" rx="3.03" ry="2.99" />
            <path d="M20.6,0H3.4A3.39,3.39,0,0,0,0,3.35v17.3A3.39,3.39,0,0,0,3.4,24H20.6A3.39,3.39,0,0,0,24,20.65V3.35A3.39,3.39,0,0,0,20.6,0ZM16.17,14.44a5.64,5.64,0,0,1-3.18-1v1.29a4.47,4.47,0,0,1-3.9,4.62,5.39,5.39,0,0,1-1.19.1,5,5,0,0,1-4.94-5A4.87,4.87,0,0,1,9.17,9.72v2A4.12,4.12,0,0,0,8,11.5a3,3,0,0,0-3,2.91,3.11,3.11,0,0,0,2.92,3.13,2.75,2.75,0,0,0,2.56-1A3.26,3.26,0,0,0,11,14.94a1.94,1.94,0,0,0,0-.24c0-1.33,0-3.49,0-5.89,0-1.91,2-4.24,5-4.24a4.8,4.8,0,0,1,5,4.9A4.94,4.94,0,0,1,16.17,14.44Z"/>
    </g>
</svg>